<svg width="25" height="25" viewBox="0 0 25 25" fill="none" xmlns="http://www.w3.org/2000/svg">
<path fill-rule="evenodd" clip-rule="evenodd" d="M17.6839 0C18.2147 0 18.6454 0.390696 18.6454 0.872089L18.646 1.85791C20.518 1.97431 22.0726 2.55586 23.173 3.55591C24.3743 4.65009 25.0063 6.22334 25 8.11054V18.7186C25 22.593 22.2871 25 17.9217 25H7.07818C2.71281 25 0 22.5593 0 18.6303V8.10822C0 4.45381 2.41929 2.10806 6.36496 1.85831L6.36575 0.872089C6.36575 0.390696 6.79651 0 7.32728 0C7.85805 0 8.28881 0.390696 8.28881 0.872089L8.28843 1.83604H16.7217L16.7224 0.872089C16.7224 0.390696 17.1531 0 17.6839 0ZM23.0768 10.3534H1.92307V18.6303C1.92307 21.614 3.75383 23.2558 7.07818 23.2558H17.9217C21.2461 23.2558 23.0769 21.6442 23.0769 18.7186L23.0768 10.3534ZM18.2066 17.67C18.7374 17.67 19.1681 18.0607 19.1681 18.5421C19.1681 19.0235 18.7374 19.4142 18.2066 19.4142C17.6758 19.4142 17.2399 19.0235 17.2399 18.5421C17.2399 18.0607 17.6643 17.67 18.1951 17.67H18.2066ZM12.5175 17.67C13.0483 17.67 13.4791 18.0607 13.4791 18.5421C13.4791 19.0235 13.0483 19.4142 12.5175 19.4142C11.9867 19.4142 11.5509 19.0235 11.5509 18.5421C11.5509 18.0607 11.9752 17.67 12.506 17.67H12.5175ZM6.81651 17.67C7.34728 17.67 7.77805 18.0607 7.77805 18.5421C7.77805 19.0235 7.34728 19.4142 6.81651 19.4142C6.28575 19.4142 5.84857 19.0235 5.84857 18.5421C5.84857 18.0607 6.27421 17.67 6.80497 17.67H6.81651ZM18.2066 13.1506C18.7374 13.1506 19.1681 13.5413 19.1681 14.0227C19.1681 14.5041 18.7374 14.8948 18.2066 14.8948C17.6758 14.8948 17.2399 14.5041 17.2399 14.0227C17.2399 13.5413 17.6643 13.1506 18.1951 13.1506H18.2066ZM12.5175 13.1506C13.0483 13.1506 13.4791 13.5413 13.4791 14.0227C13.4791 14.5041 13.0483 14.8948 12.5175 14.8948C11.9867 14.8948 11.5509 14.5041 11.5509 14.0227C11.5509 13.5413 11.9752 13.1506 12.506 13.1506H12.5175ZM6.81651 13.1506C7.34728 13.1506 7.77805 13.5413 7.77805 14.0227C7.77805 14.5041 7.34728 14.8948 6.81651 14.8948C6.28575 14.8948 5.84857 14.5041 5.84857 14.0227C5.84857 13.5413 6.27421 13.1506 6.80497 13.1506H6.81651ZM16.7217 3.58022H8.28843L8.28881 4.69882C8.28881 5.18021 7.85805 5.5709 7.32728 5.5709C6.79651 5.5709 6.36575 5.18021 6.36575 4.69882L6.36506 3.60661C3.49298 3.82544 1.92307 5.40446 1.92307 8.10822V8.60926H23.0768L23.0769 8.10822C23.082 6.67218 22.6563 5.5559 21.8115 4.78847C21.0698 4.11383 19.9856 3.71091 18.6465 3.60717L18.6454 4.69882C18.6454 5.18021 18.2147 5.5709 17.6839 5.5709C17.1531 5.5709 16.7224 5.18021 16.7224 4.69882L16.7217 3.58022Z"/>
</svg>
